# xmcd
#
# Track frame offsets:
# 183
# 24040
# 55333
# 78068
# 95033
# 116665
# 126110
# 131118
# 142670
# 163070
# 179098
# 199380
#
# Disc length: 2974 seconds
#
# Revision: 0
# Processed by: cddbd v1.4PL0 Copyright (c) Steve Scherf et al.
# Submitted via: Audion 3.0.2 (http://www.panic.com/audion/)
#
DISCID=a40b9c0c
DTITLE=C.Gunung - House Party 2
DYEAR=1900
DGENRE=
TTITLE0=it must be love
TTITLE1=Train to a party
TTITLE2=Easy Beat
TTITLE3=Are you ready
TTITLE4=Rythem House party
TTITLE5=I feel good
TTITLE6=Shorty
TTITLE7=Keep cool
TTITLE8=What are you gonna do
TTITLE9=Techno 3
TTITLE10=it's my party
TTITLE11=it's my party two
EXTD=
EXTT0=
EXTT1=
EXTT2=
EXTT3=
EXTT4=
EXTT5=
EXTT6=
EXTT7=
EXTT8=
EXTT9=
EXTT10=
EXTT11=
PLAYORDER=
